<svg width="685" height="385" xmlns="http://www.w3.org/2000/svg" xmlns:xlink="http://www.w3.org/1999/xlink" overflow="hidden"><defs><clipPath id="clip0"><rect x="0" y="0" width="685" height="385"/></clipPath><clipPath id="clip1"><rect x="153" y="76" width="302" height="202"/></clipPath><clipPath id="clip2"><rect x="176" y="88" width="271" height="167"/></clipPath><clipPath id="clip3"><rect x="176" y="88" width="271" height="167"/></clipPath><clipPath id="clip4"><rect x="176" y="88" width="271" height="167"/></clipPath><clipPath id="clip5"><rect x="176" y="88" width="271" height="167"/></clipPath><clipPath id="clip6"><rect x="153" y="76" width="302" height="202"/></clipPath><clipPath id="clip7"><rect x="153" y="76" width="302" height="202"/></clipPath><clipPath id="clip8"><rect x="153" y="76" width="302" height="202"/></clipPath><clipPath id="clip9"><rect x="153" y="76" width="302" height="202"/></clipPath><clipPath id="clip10"><rect x="153" y="76" width="302" height="202"/></clipPath><clipPath id="clip11"><rect x="153" y="76" width="302" height="202"/></clipPath><clipPath id="clip12"><rect x="153" y="76" width="302" height="202"/></clipPath><clipPath id="clip13"><rect x="153" y="76" width="302" height="202"/></clipPath><clipPath id="clip14"><rect x="153" y="76" width="302" height="202"/></clipPath><clipPath id="clip15"><rect x="153" y="76" width="302" height="202"/></clipPath><clipPath id="clip16"><rect x="153" y="76" width="302" height="202"/></clipPath><clipPath id="clip17"><rect x="153" y="76" width="302" height="202"/></clipPath><clipPath id="clip18"><rect x="153" y="76" width="302" height="202"/></clipPath><clipPath id="clip19"><rect x="153" y="76" width="302" height="202"/></clipPath><clipPath id="clip20"><rect x="153" y="76" width="302" height="202"/></clipPath><clipPath id="clip21"><rect x="153" y="76" width="302" height="202"/></clipPath><clipPath id="clip22"><rect x="153" y="76" width="302" height="202"/></clipPath><clipPath id="clip23"><rect x="153" y="76" width="302" height="202"/></clipPath></defs><g clip-path="url(#clip0)"><path d="M0 0 684.444 0 684.444 385 0 385Z" fill="#FFFFFF" transform="scale(1.00081 1)"/><text font-family="Calibri,Calibri_MSFontService,sans-serif" font-weight="400" font-size="13" transform="matrix(0.85625 0 0 0.855556 502.553 80)">Read the title of <tspan font-size="13" x="-4.07501" y="15.1948">the figure</tspan><tspan font-size="13" x="46.925" y="15.1948">-</tspan><tspan font-size="13" x="50.925" y="15.1948">often a </tspan><tspan font-size="13" x="20.3125" y="31.5584">cut off is </tspan><tspan font-size="13" x="14.425" y="47.9221">presented</tspan><tspan font-size="13" x="68.425" y="47.9221">, </tspan><tspan font-size="13" x="3.0333" y="63.1169">showing only </tspan><tspan font-size="13" x="79.0333" y="63.1169">2 </tspan><tspan font-size="13" x="14.6042" y="79.4805">responses</tspan><tspan font-size="13" x="70.6042" y="79.4805">.</tspan></text><path d="M19.6778 201.626C19.6778 194.223 25.6789 188.222 33.0817 188.222L106.374 188.222C113.777 188.222 119.778 194.223 119.778 201.626L119.778 255.24C119.778 262.644 113.777 268.644 106.374 268.644L33.0817 268.644C25.6789 268.644 19.6778 262.644 19.6778 255.24Z" stroke="#7F7F7F" stroke-width="1.60417" stroke-miterlimit="8" fill="none" fill-rule="evenodd" transform="scale(1.00081 1)"/><path d="M486.811 81.9911C486.811 73.5644 493.642 66.7333 502.069 66.7333L571.653 66.7333C580.08 66.7333 586.911 73.5644 586.911 81.9911L586.911 143.02C586.911 151.447 580.08 158.278 571.653 158.278L502.069 158.278C493.642 158.278 486.811 151.447 486.811 143.02Z" stroke="#7F7F7F" stroke-width="1.60417" stroke-miterlimit="8" fill="none" fill-rule="evenodd" transform="scale(1.00081 1)"/><path d="M20.1056 192.928 120.206 192.928 120.206 278.483 20.1056 278.483Z" stroke="#7F7F7F" stroke-width="0.534722" stroke-linejoin="round" stroke-miterlimit="10" fill="none" transform="scale(1.00081 1)"/><text font-family="Calibri,Calibri_MSFontService,sans-serif" font-weight="400" font-size="13" transform="matrix(0.85625 0 0 0.855556 31.7768 205)">Look carefully at <tspan font-size="13" x="-3.27917" y="16.3636">the scale on the y </tspan><tspan font-size="13" x="-1.54583" y="32.7273">axis as this might </tspan><tspan font-size="13" x="-6.29167" y="47.9221">vary from figure to </tspan><tspan font-size="13" x="28.575" y="64.2857">figure</tspan></text><path d="M122.69 31.7875 154.083 46.7959 153.392 48.2432 121.999 33.2347ZM154.051 45.0026 157.355 49.2494 151.976 49.3445Z" fill="#7F7F7F" transform="scale(1.00081 1)"/><path d="M488.562 73.9914 423.764 57.3837 424.161 55.8298 488.959 72.4375ZM424.143 59.1369 420.078 55.6111 425.337 54.475Z" fill="#7F7F7F" transform="scale(1.00081 1)"/><path d="M19.6778 27.0928C19.6778 19.69 25.6789 13.6889 33.0817 13.6889L106.374 13.6889C113.777 13.6889 119.778 19.69 119.778 27.0928L119.778 80.7072C119.778 88.1102 113.777 94.1111 106.374 94.1111L33.0817 94.1111C25.6789 94.1111 19.6778 88.1102 19.6778 80.7072Z" stroke="#A6A6A6" stroke-width="1.60417" stroke-miterlimit="8" fill="none" fill-rule="evenodd" transform="scale(1.00081 1)"/><text font-family="Calibri,Calibri_MSFontService,sans-serif" font-weight="400" font-size="13" transform="matrix(0.85625 0 0 0.855556 37.8081 28)">Percentage of <tspan font-size="13" x="-5.65833" y="16.3636">pupils reporting </tspan><tspan font-size="13" x="0.662499" y="32.7273">this</tspan><tspan font-size="13" x="21.6625" y="32.7273">. </tspan><tspan font-size="13" x="27.6625" y="32.7273">Or mean </tspan><tspan font-size="13" x="-7.67917" y="47.9221">score in the case </tspan><tspan font-size="13" x="10.4583" y="64.2857">of a scale</tspan><tspan font-size="13" x="63.4583" y="64.2857">.</tspan><tspan font-weight="700" font-size="15" x="149.49" y="37.4026">% </tspan><tspan font-weight="700" font-size="15" x="163.865" y="37.4026">pupils who feel often or always confident</tspan></text><path d="M0.278886-0.752038 43.4633 15.2625 42.9055 16.7666-0.278886 0.752038ZM43.269 13.4795 46.9446 17.409 41.5957 17.9917Z" fill="#7F7F7F" transform="matrix(1.00081 0 0 -1 96.7562 184.242)"/><g clip-path="url(#clip1)"><path d="M176.672 230.572 446.172 230.572M176.672 206.617 446.172 206.617M176.672 182.661 446.172 182.661M176.672 159.561 446.172 159.561M176.672 135.606 446.172 135.606M176.672 112.506 446.172 112.506M176.672 88.55 446.172 88.55" stroke="#E0E5EB" stroke-width="0.534722" stroke-linejoin="round" stroke-miterlimit="10" fill="none" transform="scale(1.00081 1)"/></g><g clip-path="url(#clip2)"><path d="M189.933 199.344 217.311 199.344 217.311 254.1 189.933 254.1Z" fill="#2F5597" transform="scale(1.00081 1)"/></g><g clip-path="url(#clip3)"><path d="M243.833 140.311 271.211 140.311 271.211 254.1 243.833 254.1Z" fill="#DAE3F3" transform="scale(1.00081 1)"/></g><g clip-path="url(#clip4)"><path d="M351.633 166.833 378.156 166.833 378.156 254.1 351.633 254.1Z" fill="#548235" transform="scale(1.00081 1)"/></g><g clip-path="url(#clip5)"><path d="M405.533 176.244 432.056 176.244 432.056 254.1 405.533 254.1Z" fill="#C5E0B4" transform="scale(1.00081 1)"/></g><g clip-path="url(#clip6)"><path d="M176.672 253.672 446.172 253.672" stroke="#E0E5EB" stroke-width="0.534722" stroke-linejoin="round" stroke-miterlimit="10" fill="none" fill-rule="evenodd" transform="scale(1.00081 1)"/></g><g clip-path="url(#clip7)"><text fill="#44546A" font-family="Calibri,Calibri_MSFontService,sans-serif" font-weight="700" font-size="9" transform="matrix(0.85625 0 0 0.855556 199.892 194)">23</text></g><g clip-path="url(#clip8)"><text fill="#44546A" font-family="Calibri,Calibri_MSFontService,sans-serif" font-weight="700" font-size="9" transform="matrix(0.85625 0 0 0.855556 253.742 135)">48</text></g><g clip-path="url(#clip9)"><text fill="#44546A" font-family="Calibri,Calibri_MSFontService,sans-serif" font-weight="700" font-size="9" transform="matrix(0.85625 0 0 0.855556 361.442 162)">37</text></g><g clip-path="url(#clip10)"><text fill="#44546A" font-family="Calibri,Calibri_MSFontService,sans-serif" font-weight="700" font-size="9" transform="matrix(0.85625 0 0 0.855556 415.292 171)">33</text></g><g clip-path="url(#clip11)"><text fill="#44546A" font-family="Calibri,Calibri_MSFontService,sans-serif" font-weight="700" font-size="8" transform="matrix(0.85625 0 0 0.855556 166.709 256)">0</text></g><g clip-path="url(#clip12)"><text fill="#44546A" font-family="Calibri,Calibri_MSFontService,sans-serif" font-weight="700" font-size="8" transform="matrix(0.85625 0 0 0.855556 163.092 233)">10</text></g><g clip-path="url(#clip13)"><text fill="#44546A" font-family="Calibri,Calibri_MSFontService,sans-serif" font-weight="700" font-size="8" transform="matrix(0.85625 0 0 0.855556 163.092 209)">20</text></g><g clip-path="url(#clip14)"><text fill="#44546A" font-family="Calibri,Calibri_MSFontService,sans-serif" font-weight="700" font-size="8" transform="matrix(0.85625 0 0 0.855556 163.092 185)">30</text></g><g clip-path="url(#clip15)"><text fill="#44546A" font-family="Calibri,Calibri_MSFontService,sans-serif" font-weight="700" font-size="8" transform="matrix(0.85625 0 0 0.855556 163.092 162)">40</text></g><g clip-path="url(#clip16)"><text fill="#44546A" font-family="Calibri,Calibri_MSFontService,sans-serif" font-weight="700" font-size="8" transform="matrix(0.85625 0 0 0.855556 163.092 138)">50</text></g><g clip-path="url(#clip17)"><text fill="#44546A" font-family="Calibri,Calibri_MSFontService,sans-serif" font-weight="700" font-size="8" transform="matrix(0.85625 0 0 0.855556 163.092 114)">60</text></g><g clip-path="url(#clip18)"><text fill="#44546A" font-family="Calibri,Calibri_MSFontService,sans-serif" font-weight="700" font-size="8" transform="matrix(0.85625 0 0 0.855556 163.092 91)">70</text></g><g clip-path="url(#clip19)"><text fill="#44546A" font-family="Calibri,Calibri_MSFontService,sans-serif" font-weight="700" font-size="9" transform="matrix(0.85625 0 0 0.855556 197.161 267)">Girl</text></g><g clip-path="url(#clip20)"><text fill="#44546A" font-family="Calibri,Calibri_MSFontService,sans-serif" font-weight="700" font-size="9" transform="matrix(0.85625 0 0 0.855556 251.552 267)">Boy</text></g><g clip-path="url(#clip21)"><text fill="#44546A" font-family="Calibri,Calibri_MSFontService,sans-serif" font-weight="700" font-size="9" transform="matrix(0.85625 0 0 0.855556 361.576 267)">S<tspan font-size="9" x="4.00002" y="0">2</tspan></text></g><g clip-path="url(#clip22)"><text fill="#44546A" font-family="Calibri,Calibri_MSFontService,sans-serif" font-weight="700" font-size="9" transform="matrix(0.85625 0 0 0.855556 415.426 267)">S<tspan font-size="9" x="3.99999" y="0">4</tspan></text></g><g clip-path="url(#clip23)"><text fill="#44546A" font-family="Calibri,Calibri_MSFontService,sans-serif" font-weight="700" font-size="8" transform="matrix(5.24302e-17 -0.855556 0.85625 5.23876e-17 160.654 156)">%</text></g><path d="M486.811 271.069C486.811 262.642 493.642 255.811 502.069 255.811L571.653 255.811C580.08 255.811 586.911 262.642 586.911 271.069L586.911 332.098C586.911 340.525 580.08 347.356 571.653 347.356L502.069 347.356C493.642 347.356 486.811 340.525 486.811 332.098Z" stroke="#7F7F7F" stroke-width="1.60417" stroke-miterlimit="8" fill="none" fill-rule="evenodd" transform="scale(1.00081 1)"/><path d="M463.75 296.436 398.952 279.828 399.35 278.275 464.148 294.882ZM399.331 281.581 395.267 278.056 400.526 276.919Z" fill="#7F7F7F" transform="scale(1.00081 1)"/><text font-family="Calibri,Calibri_MSFontService,sans-serif" font-weight="400" font-size="13" transform="matrix(0.85625 0 0 0.855556 496.336 269)">Results by gender <tspan font-size="13" x="11.7125" y="15.1948">are shown by </tspan><tspan font-size="13" x="7.29581" y="31.5584">gender in blue</tspan><tspan font-size="13" x="85.2959" y="31.5584">.</tspan><tspan font-size="13" x="7.26249" y="47.9221">Results by year </tspan><tspan font-size="13" x="2.30832" y="63.1169">group are shown </tspan><tspan font-size="13" x="25.8166" y="79.4805">in green</tspan></text></g></svg>